<svg width="512" height="512" viewBox="0 0 135.467 135.467" xmlns="http://www.w3.org/2000/svg">
  <g style="font-style:normal;font-variant:normal;font-weight:400;font-stretch:condensed;font-size:1464.54px;line-height:125%;font-family:Impact;-inkscape-font-specification:'Impact Condensed';letter-spacing:0;word-spacing:0;fill:#000;fill-opacity:1;stroke:none;stroke-width:1px;stroke-linecap:butt;stroke-linejoin:miter;stroke-opacity:1">
    <path style="fill:#f0f" d="M1560.72-588.415h502.007v231.695h-200.945v219.539h188.073V83.072h-188.073v254.58h220.968v231.695h-522.03z" transform="matrix(.05721 0 0 .07111 4.14 68.411)"/>
    <path style="fill:red" d="M1516.395-238.012h-279.607v-85.813q0-60.07-10.727-76.517-10.727-16.447-35.755-16.447-27.174 0-41.477 22.168-13.587 22.169-13.587 67.22 0 57.924 15.733 87.244 15.017 29.32 85.098 70.796 200.945 119.423 253.148 195.94 52.203 76.516 52.203 246.712 0 123.714-29.32 182.353-28.604 58.64-111.556 98.685-82.953 39.331-193.08 39.331-120.853 0-206.666-45.767-85.099-45.767-111.558-116.563-26.46-70.795-26.46-200.945v-75.802h279.61V295.46q0 65.075 11.441 83.667 12.157 18.593 42.191 18.593 30.035 0 44.337-23.598 15.018-23.599 15.018-70.081 0-102.26-27.89-133.725-28.604-31.465-140.876-105.121Q974.342-9.177 937.87-42.787q-36.47-33.61-60.784-92.964-23.599-59.354-23.599-151.603 0-133.01 33.61-194.51 34.326-61.5 110.128-95.825 75.802-35.04 183.068-35.04 117.278 0 199.516 37.9 82.952 37.901 109.411 95.825 27.174 57.21 27.174 195.225z" transform="matrix(.05721 0 0 .07111 4.14 68.411)"/>
    <path style="fill:#00f" d="M140.368-588.415h300.346q142.306 0 215.248 22.168 73.656 22.168 118.708 90.104 45.052 67.22 45.052 217.393 0 101.546-32.18 141.592-31.465 40.046-125.144 61.499Q766.804-32.06 803.989 23.003q37.186 54.348 37.186 167.336v107.266q0 117.278-27.174 173.772-26.46 56.493-85.098 77.231-58.64 20.739-240.277 20.739H140.368Zm301.06 198.085v257.44q19.309-.716 30.035-.716 44.337 0 56.494-21.453 12.157-22.169 12.157-125.144 0-54.349-10.012-75.802-10.011-22.168-26.459-27.89-15.732-5.72-62.214-6.435zm0 437.647V371.26q63.646-2.145 80.808-20.023 17.878-17.878 17.878-87.958V155.298q0-74.371-15.732-90.103-15.733-15.733-82.953-17.878z" transform="matrix(.05721 0 0 .07111 4.14 68.411)"/>
  </g>
</svg>
